<svg viewBox="406.5709923664122 146.0403 562.6652126499455 446.03999999999996" xmlns="http://www.w3.org/2000/svg" style="max-height: 500px" width="562.6652126499455" height="446.03999999999996">
<g>
<path fill="rgb(18,42,75)" d="M 689.43 512.54 C677.87,515.48 671.94,515.61 666.33,513.06 C661.79,511.00 660.00,508.58 660.00,504.50 C660.00,500.75 661.37,498.58 669.77,489.00 C677.29,480.43 683.49,472.14 682.85,471.53 C682.66,471.34 677.55,470.46 671.50,469.57 C624.65,462.68 581.32,439.79 551.58,406.20 C531.49,383.52 514.48,352.07 508.58,326.70 C507.78,323.29 505.95,316.74 504.49,312.14 C500.24,298.72 493.18,292.77 473.00,285.58 C440.54,274.02 424.00,254.80 424.00,228.64 C424.00,221.52 426.17,210.00 427.52,210.00 C427.76,210.00 430.33,212.27 433.23,215.05 C442.84,224.25 453.47,228.00 469.95,228.00 C485.87,228.00 497.32,231.57 507.54,239.70 L 512.58 243.71 L 515.26 238.90 C520.54,229.45 533.53,221.60 549.67,218.11 C554.71,217.02 560.73,215.16 563.06,213.97 C569.26,210.81 576.20,203.33 579.03,196.77 C580.39,193.61 582.06,191.03 582.74,191.02 C584.40,190.99 589.66,201.61 591.51,208.70 C593.42,216.04 593.41,225.98 591.48,233.54 C587.65,248.53 578.78,260.10 562.00,272.00 C551.60,279.37 545.41,285.52 544.42,289.44 C543.61,292.69 546.40,297.20 553.23,303.66 C565.20,314.97 579.38,323.40 588.56,324.66 L 593.31 325.31 L 592.64 319.63 C591.86,312.99 593.39,309.05 597.47,307.19 C602.60,304.86 606.80,306.05 627.24,315.64 C646.05,324.47 654.19,326.43 669.00,325.70 C688.35,324.75 716.03,318.18 771.07,301.47 C811.49,289.21 846.23,284.32 880.09,286.13 C901.06,287.25 920.74,290.84 929.07,295.05 C933.86,297.48 939.63,304.02 940.51,308.05 C940.91,309.86 942.08,312.72 943.11,314.42 C946.55,320.05 945.70,326.64 940.18,337.24 C924.27,367.84 897.24,399.67 869.39,420.63 C856.26,430.51 850.39,434.18 833.39,443.15 L 822.29 449.02 L 819.52 457.54 C813.64,475.59 799.78,493.26 784.89,501.67 C774.80,507.37 772.96,507.73 769.41,504.68 L 766.54 502.21 L 767.88 496.36 C768.62,493.13 769.84,487.80 770.59,484.50 C771.34,481.20 771.97,475.76 771.98,472.41 L 772.00 466.32 L 761.19 468.51 L 750.37 470.69 L 738.44 482.69 C721.56,499.65 708.21,507.78 689.43,512.54 ZM 678.30 317.51 C660.24,320.23 654.04,318.97 627.61,307.19 C613.01,300.69 609.52,299.51 603.83,299.18 C598.31,298.85 596.47,299.17 593.20,301.01 C589.08,303.32 585.00,309.23 585.00,312.89 C585.00,315.54 583.98,315.53 578.71,312.88 C571.83,309.41 562.86,302.63 557.12,296.55 L 551.75 290.85 L 555.12 287.36 C556.98,285.43 562.83,280.76 568.11,276.98 C579.03,269.17 589.01,258.86 592.76,251.50 C594.16,248.75 596.52,243.12 598.00,239.00 C600.66,231.57 600.76,231.45 609.09,225.71 C643.18,202.26 686.66,193.46 728.72,201.51 C738.10,203.31 757.99,209.97 766.13,214.04 C791.90,226.93 811.74,244.29 830.19,270.10 C833.38,274.56 835.74,278.61 835.43,279.11 C835.13,279.60 833.61,280.00 832.06,280.00 C823.71,280.00 792.08,287.11 765.50,294.97 C713.60,310.30 696.08,314.83 678.30,317.51 ZM 670.00 503.99 C670.00,505.62 680.69,504.53 689.30,502.02 C709.18,496.23 729.04,481.51 743.91,461.54 C755.13,446.46 759.84,437.65 766.66,419.00 C768.57,413.77 771.32,406.84 772.77,403.59 L 775.42 397.67 L 763.50 386.73 L 771.50 387.50 C784.15,388.72 786.68,388.43 793.66,384.99 C802.69,380.55 810.17,372.70 818.44,359.00 C827.90,343.31 839.99,331.18 852.05,325.26 C862.45,320.16 869.17,317.92 884.07,314.60 C895.90,311.97 918.02,309.00 925.87,309.00 C929.83,309.00 930.12,308.84 928.87,307.34 C926.30,304.23 909.34,298.37 902.00,298.06 C901.17,298.03 897.80,297.59 894.50,297.08 C886.05,295.80 852.80,295.79 841.21,297.08 C821.19,299.30 790.96,306.11 764.00,314.48 C758.22,316.27 743.04,320.59 730.25,324.07 L 707.00 330.39 L 707.00 335.29 C707.00,340.09 707.15,340.33 714.42,347.12 C722.13,354.32 725.17,359.20 727.58,368.26 C730.31,378.51 728.87,392.15 724.00,402.24 C722.90,404.51 722.00,406.49 722.00,406.64 C722.00,406.79 726.74,403.94 732.53,400.32 C738.32,396.69 743.31,393.98 743.62,394.28 C745.18,395.85 739.75,404.05 733.52,409.53 C712.09,428.38 709.41,431.95 703.04,450.19 C696.42,469.16 688.00,483.66 676.61,495.74 C672.97,499.59 670.00,503.30 670.00,503.99 ZM 668.50 459.07 C674.00,460.04 680.66,460.87 683.31,460.92 L 688.11 461.00 L 690.57 455.43 C691.93,452.37 694.43,445.73 696.14,440.68 C697.85,435.63 699.69,430.65 700.24,429.60 C701.11,427.94 700.94,427.78 698.86,428.34 C692.90,429.93 673.42,431.18 663.00,430.64 C642.15,429.56 619.78,424.09 604.00,416.24 L 596.50 412.50 L 595.20 405.00 C593.51,395.22 594.23,372.66 596.50,364.50 C599.19,354.83 605.26,342.84 609.23,339.36 C613.08,335.99 614.20,335.77 633.85,334.41 L 643.19 333.77 L 637.85 331.54 C634.91,330.31 626.52,326.54 619.20,323.15 C603.99,316.11 601.57,315.62 602.38,319.75 C604.21,329.04 604.23,332.09 602.46,334.04 C600.33,336.39 597.44,336.49 587.96,334.49 C564.75,329.61 544.11,313.31 529.73,288.50 C527.82,285.20 525.95,281.38 525.58,280.00 L 524.92 277.50 L 526.26 279.78 C527.73,282.27 529.22,281.81 528.28,279.15 C527.96,278.24 529.37,279.08 531.41,281.00 C534.98,284.36 535.17,284.42 536.25,282.51 C538.53,278.46 546.24,271.12 554.23,265.39 C571.98,252.67 579.59,243.00 581.99,230.11 C583.20,223.67 583.33,212.00 582.20,212.00 C581.75,212.00 579.85,213.60 577.96,215.55 C572.61,221.06 566.99,223.82 554.33,227.13 C531.31,233.15 525.01,237.94 518.45,254.43 C516.28,259.89 514.05,264.47 513.50,264.62 C512.95,264.76 511.00,261.74 509.17,257.90 C506.71,252.75 504.54,249.89 500.92,247.03 C492.97,240.74 486.67,238.90 470.00,237.97 C454.47,237.10 445.16,234.94 437.25,230.37 L 433.00 227.92 L 433.00 230.25 C433.00,234.43 436.05,244.40 438.73,249.00 C442.22,254.98 451.49,264.61 456.66,267.64 C458.94,268.98 467.42,272.74 475.50,276.00 C492.20,282.73 497.57,285.64 503.67,291.26 C509.15,296.32 511.99,302.25 516.92,319.00 C523.43,341.12 524.82,344.97 530.65,357.00 C540.61,377.56 551.45,392.47 568.12,408.53 C596.25,435.62 628.91,452.07 668.50,459.07 ZM 725.49 570.40 C697.94,574.32 672.91,572.59 646.11,564.91 C559.92,540.20 499.67,457.09 503.37,368.00 C504.09,350.69 505.17,343.20 506.49,346.50 C511.93,360.17 514.91,366.83 518.73,373.85 C522.75,381.24 523.38,383.27 524.18,391.35 C527.33,423.29 540.28,455.94 560.31,482.48 C568.11,492.81 585.20,509.78 595.82,517.73 C624.94,539.55 661.73,552.00 697.06,552.00 C713.16,552.00 722.30,550.88 737.49,547.04 C758.58,541.72 780.71,531.27 797.50,518.71 C813.99,506.38 832.19,486.34 843.88,467.64 C848.60,460.09 858.00,441.36 858.00,439.50 C858.00,438.86 860.56,436.57 863.69,434.42 C866.82,432.26 872.73,427.91 876.82,424.75 C880.91,421.59 884.62,419.00 885.06,419.00 C887.38,419.00 876.58,449.94 869.01,465.01 C864.21,474.55 854.58,489.25 846.37,499.54 C838.28,509.69 821.16,526.60 812.33,533.14 C785.43,553.09 754.80,566.23 725.49,570.40 ZM 729.00 540.67 C708.25,545.03 680.56,544.58 661.32,539.59 C649.17,536.43 634.31,530.73 623.00,524.88 C577.83,501.54 545.23,457.92 535.11,407.30 C534.03,401.92 533.28,397.39 533.43,397.24 C533.58,397.09 535.38,399.11 537.42,401.73 C548.61,416.09 567.47,433.49 584.00,444.69 C603.92,458.18 637.72,471.82 661.75,476.04 C665.74,476.75 669.00,477.63 669.00,478.00 C669.00,478.37 665.80,482.19 661.89,486.48 C651.89,497.45 650.19,502.44 653.57,510.90 C657.23,520.02 670.29,524.45 685.09,521.60 C692.89,520.09 706.01,515.57 713.22,511.89 C724.69,506.05 740.25,493.69 748.54,483.82 C752.83,478.71 753.80,478.08 758.22,477.47 C760.92,477.10 763.39,477.06 763.72,477.38 C764.04,477.71 763.07,482.74 761.56,488.56 C758.55,500.09 758.66,504.03 762.11,508.42 C767.54,515.32 774.84,515.75 786.21,509.83 C803.65,500.76 820.69,479.87 827.42,459.31 C829.08,454.23 829.30,454.03 837.31,450.14 C841.81,447.96 845.66,446.33 845.85,446.52 C846.63,447.29 836.51,465.05 830.48,473.50 C805.73,508.19 769.52,532.16 729.00,540.67 ZM 762.01 452.75 L 761.95 452.86 C760.52,455.32 759.64,456.83 760.07,457.49 C760.75,458.52 764.67,457.45 774.80,454.67 L 775.08 454.59 C808.61,445.40 837.53,431.58 863.00,412.59 C874.62,403.92 898.17,380.63 907.40,368.68 C915.72,357.92 929.22,336.94 932.63,329.49 C936.17,321.77 935.65,319.67 930.00,318.84 C920.26,317.42 891.24,321.68 873.50,327.14 C853.53,333.28 841.30,341.66 832.36,355.33 C829.78,359.27 825.60,365.57 823.08,369.33 C820.56,373.09 818.05,376.92 817.50,377.85 C814.36,383.13 800.73,393.06 791.67,396.66 C788.28,398.00 784.52,400.20 783.32,401.53 C782.12,402.86 779.96,407.90 778.53,412.73 C773.51,429.66 768.79,441.11 762.01,452.75 ZM 867.00 276.66 C867.00,277.70 864.50,278.00 855.75,277.98 L 844.50 277.96 L 840.73 271.52 C821.99,239.47 786.88,211.07 751.25,199.14 C717.92,187.97 677.97,187.91 644.88,198.96 C632.06,203.24 622.97,207.55 609.75,215.60 L 601.00 220.93 L 601.00 217.67 C601.00,214.88 599.99,210.26 597.46,201.45 C596.96,199.70 598.41,198.54 607.69,193.31 C654.35,167.00 711.13,162.72 762.61,181.65 C794.76,193.46 827.49,218.17 848.95,246.82 C854.92,254.78 867.00,274.76 867.00,276.66 ZM 644.50 419.05 C650.00,420.03 656.65,420.87 659.27,420.92 L 664.03 421.00 L 661.65 416.25 C654.11,401.22 652.92,373.97 659.09,357.50 C660.12,354.75 662.75,349.46 664.92,345.75 C667.09,342.04 668.56,339.00 668.19,339.00 C667.81,339.00 664.12,339.65 660.00,340.43 C655.88,341.22 644.40,342.63 634.50,343.57 C624.60,344.50 615.90,345.74 615.17,346.32 C613.08,347.98 608.42,357.84 605.84,366.04 C603.89,372.26 603.50,375.66 603.50,386.50 C603.50,393.65 603.85,401.15 604.28,403.17 C605.01,406.58 605.56,407.04 612.28,409.79 C622.55,414.00 632.96,416.99 644.50,419.05 ZM 686.00 414.02 L 686.00 418.00 L 695.00 418.00 L 695.00 414.08 C695.00,410.28 695.15,410.11 699.83,408.56 C710.49,405.02 715.70,394.50 711.35,385.32 C709.14,380.66 703.98,377.59 693.36,374.60 C684.66,372.15 682.00,370.33 682.00,366.83 C682.00,361.63 695.77,360.24 701.96,364.81 C703.59,366.02 705.14,367.00 705.42,367.00 C706.11,367.00 711.00,358.55 711.00,357.36 C711.00,356.07 703.09,352.30 698.61,351.45 C695.11,350.80 695.00,350.64 695.00,346.39 C695.00,341.69 694.72,341.51 689.12,342.62 C686.33,343.18 685.99,343.63 685.95,346.88 C685.90,350.31 685.58,350.65 679.70,353.50 C672.79,356.84 669.05,361.86 669.02,367.80 C668.97,376.19 675.56,382.00 688.89,385.34 C692.40,386.22 696.11,387.69 697.14,388.62 C699.44,390.71 699.54,394.74 697.35,397.17 C694.25,400.60 682.91,398.92 676.02,394.02 L 673.18 391.99 L 670.09 395.89 C668.39,398.03 667.00,400.23 667.00,400.77 C667.00,401.93 679.30,408.46 683.25,409.39 C685.68,409.96 686.00,410.50 686.00,414.02 ZM 639.18 360.37 C632.76,360.74 624.46,361.32 620.75,361.66 C614.84,362.21 614.00,362.08 614.00,360.60 C614.00,358.56 617.75,351.01 618.77,350.99 C619.17,350.98 627.81,350.10 637.97,349.04 C648.13,347.98 656.58,347.24 656.73,347.40 C657.20,347.87 652.67,358.45 651.73,359.10 C651.25,359.43 645.61,360.00 639.18,360.37 ZM 801.66 368.07 C797.49,370.61 795.75,370.50 792.15,367.48 C789.59,365.32 788.54,365.05 784.96,365.62 L 780.76 366.29 L 782.56 363.40 C790.25,351.03 799.44,348.85 809.92,356.91 L 812.35 358.77 L 809.24 360.37 C807.54,361.26 805.84,362.91 805.48,364.06 C805.12,365.20 803.40,367.01 801.66,368.07 ZM 649.00 397.00 L 649.00 402.00 L 624.00 402.00 L 624.00 397.00 ZM 644.36 374.36 C638.26,375.20 625.51,375.18 624.67,374.33 C624.30,373.97 624.00,372.84 624.00,371.83 C624.00,370.15 625.05,370.00 636.50,370.00 C648.03,370.00 649.00,370.14 649.00,371.86 C649.00,373.32 647.99,373.87 644.36,374.36 ZM 648.00 382.71 L 648.00 388.00 L 635.50 388.00 C623.67,388.00 623.00,387.89 623.00,386.00 C623.00,384.23 623.67,384.00 628.75,383.99 C631.91,383.99 637.54,383.70 641.25,383.35 ZM 621.00 394.87 C621.00,395.35 619.28,397.68 617.18,400.05 L 613.36 404.36 L 611.18 402.18 C608.37,399.37 608.37,397.60 611.17,398.33 C612.61,398.71 614.30,398.08 616.24,396.45 C619.24,393.93 621.00,393.34 621.00,394.87 ZM 617.70 373.80 C615.89,375.56 614.16,377.00 613.86,377.00 C612.89,377.00 610.00,373.38 610.00,372.17 C610.00,370.73 612.23,370.63 613.61,372.01 C614.30,372.70 615.39,372.21 616.99,370.51 C618.29,369.13 619.72,368.00 620.17,368.00 C622.00,368.00 620.82,370.79 617.70,373.80 ZM 620.00 382.01 C620.00,382.57 618.54,384.61 616.75,386.55 C613.65,389.91 613.40,390.00 611.25,388.48 C608.43,386.48 608.36,385.00 611.09,385.00 C612.24,385.00 614.33,384.10 615.73,383.00 C618.53,380.80 620.00,380.46 620.00,382.01 ZM 796.52 362.63 C797.86,363.62 798.68,363.68 799.67,362.86 C801.82,361.07 801.23,359.00 798.56,359.00 C795.34,359.00 794.23,360.97 796.52,362.63 Z"/>
<path fill="rgb(87,198,228)" d="M 743.00 320.90 L 736.50 322.96 L 742.96 322.47 C747.05,322.17 749.72,321.47 750.21,320.58 C750.65,319.81 752.91,318.83 755.25,318.40 C757.59,317.97 759.84,317.54 760.25,317.43 C760.66,317.33 761.34,317.17 761.75,317.06 C765.13,316.22 783.35,317.35 787.34,318.64 C791.06,319.85 792.45,319.95 793.34,319.04 C794.22,318.14 793.82,317.27 791.66,315.40 C789.63,313.64 789.03,312.44 789.56,311.22 C789.98,310.27 790.25,309.16 790.16,308.75 C790.07,308.34 790.34,308.08 790.75,308.18 C791.83,308.44 800.09,305.75 799.63,305.29 C799.01,304.68 783.09,308.85 764.61,314.29 C781.03,309.22 798.62,304.73 814.35,301.51 C813.07,301.81 811.78,302.12 810.50,302.45 C805.76,303.68 805.34,303.92 808.50,303.62 C810.70,303.40 813.62,303.61 815.00,304.07 C816.38,304.53 819.53,304.68 822.00,304.41 C824.47,304.14 831.22,303.68 837.00,303.38 C843.22,303.07 848.36,302.30 849.60,301.50 C850.76,300.75 853.46,299.83 855.60,299.44 C857.75,299.06 859.97,298.37 860.54,297.92 C861.11,297.47 864.49,296.91 868.04,296.68 C871.59,296.45 866.62,296.40 857.00,296.55 C848.36,296.69 840.41,297.22 832.80,298.19 C835.76,297.74 838.57,297.37 841.21,297.08 C852.80,295.79 886.05,295.80 894.50,297.08 C897.80,297.59 901.17,298.03 902.00,298.06 C909.34,298.37 926.30,304.23 928.87,307.34 C930.12,308.84 929.83,309.00 925.87,309.00 C918.02,309.00 895.90,311.97 884.07,314.60 C869.17,317.92 862.45,320.16 852.05,325.26 C839.99,331.18 827.90,343.31 818.44,359.00 C810.17,372.70 802.69,380.55 793.66,384.99 C786.68,388.43 784.15,388.72 771.50,387.50 L 763.50 386.73 L 775.42 397.67 L 772.77 403.59 C771.32,406.84 768.57,413.77 766.66,419.00 C762.00,431.76 758.32,439.91 752.87,448.62 C753.59,447.03 753.26,446.37 752.58,445.38 C752.25,444.91 752.00,444.54 751.83,444.14 C751.20,442.56 751.92,440.44 755.44,430.08 L 755.45 430.05 C759.47,418.22 759.72,416.17 757.25,415.37 C756.29,415.06 754.83,414.55 754.00,414.22 C753.17,413.90 750.73,413.55 748.57,413.44 C746.29,413.32 744.15,412.55 743.45,411.60 C742.69,410.56 741.58,410.21 740.38,410.64 C737.75,411.58 725.90,422.99 717.68,432.50 C709.82,441.59 708.19,442.85 706.82,440.87 C706.76,440.78 706.70,440.71 706.65,440.64 C711.27,429.87 716.44,424.55 733.52,409.53 C739.75,404.05 745.18,395.85 743.62,394.28 C743.31,393.98 738.32,396.69 732.53,400.32 C726.74,403.94 722.00,406.79 722.00,406.64 C722.00,406.49 722.90,404.51 724.00,402.24 C728.87,392.15 730.31,378.51 727.58,368.26 C725.17,359.20 722.13,354.32 714.42,347.12 C707.15,340.33 707.00,340.09 707.00,335.29 L 707.00 330.39 L 730.25 324.07 C739.38,321.58 749.72,318.67 757.00,316.56 C752.32,317.98 747.59,319.44 743.00,320.90 ZM 629.00 334.13 C629.00,334.40 629.17,334.60 629.50,334.72 C614.01,335.82 612.77,336.26 609.23,339.36 C605.26,342.84 599.19,354.83 596.50,364.50 C594.60,371.33 593.79,388.26 594.56,399.33 C594.26,396.03 594.05,392.38 594.02,389.50 L 593.92 380.50 L 585.80 376.50 C577.28,372.30 564.78,363.63 557.06,356.55 C548.80,348.96 546.32,347.63 543.03,348.99 C541.32,349.70 539.20,349.86 537.82,349.39 C536.55,348.96 535.13,348.70 534.68,348.82 C534.24,348.94 532.59,348.13 531.03,347.02 C528.86,345.48 526.15,344.63 525.28,345.07 C522.96,339.17 520.89,332.48 516.92,319.00 C511.99,302.25 509.15,296.32 503.67,291.26 C497.57,285.64 492.20,282.73 475.50,276.00 C467.42,272.74 458.94,268.98 456.66,267.64 C451.49,264.61 442.22,254.98 438.73,249.00 C436.05,244.40 433.00,234.43 433.00,230.25 L 433.00 227.92 L 437.25 230.37 C445.16,234.94 454.47,237.10 470.00,237.97 C486.67,238.90 492.97,240.74 500.92,247.03 C504.54,249.89 506.71,252.75 509.17,257.90 C511.00,261.74 512.95,264.76 513.50,264.62 C514.05,264.47 516.28,259.89 518.45,254.43 C525.01,237.94 531.31,233.15 554.33,227.13 C566.99,223.82 572.61,221.06 577.96,215.55 C579.85,213.60 581.75,212.00 582.20,212.00 C583.33,212.00 583.20,223.67 581.99,230.11 C579.59,243.00 571.98,252.67 554.23,265.39 C546.24,271.12 538.53,278.46 536.25,282.51 C535.17,284.42 534.98,284.36 531.41,281.00 C529.37,279.08 527.96,278.24 528.28,279.15 C528.77,280.54 528.60,281.33 528.11,281.41 C529.01,280.57 528.19,278.07 526.19,275.75 C524.09,273.30 523.20,273.57 523.75,276.49 C524.00,277.80 524.59,278.58 525.15,278.39 L 525.54 279.82 C525.38,280.40 525.47,280.69 525.78,280.60 C526.40,282.29 528.05,285.60 529.73,288.50 C544.11,313.31 564.75,329.61 587.96,334.49 C597.44,336.49 600.33,336.39 602.46,334.04 C604.23,332.09 604.21,329.04 602.38,319.75 C601.57,315.62 603.99,316.11 619.20,323.15 C626.52,326.54 634.91,330.31 637.85,331.54 L 643.19 333.77 L 643.16 333.77 L 638.53 331.97 C634.21,330.28 633.46,330.22 632.73,331.51 C632.27,332.33 631.25,333.00 630.45,333.00 C629.65,333.00 629.00,333.51 629.00,334.13 ZM 821.07 372.95 C819.66,374.85 819.02,376.08 819.66,375.70 C820.29,375.31 822.14,372.99 823.77,370.53 C825.40,368.07 826.96,366.29 827.24,366.57 C828.07,367.40 839.35,351.29 839.52,349.05 C839.69,346.70 843.80,341.91 845.43,342.16 C847.97,342.55 859.54,338.02 861.00,336.06 C862.02,334.68 870.65,331.22 874.75,330.53 C878.60,329.89 880.80,328.02 877.75,327.98 C876.92,327.97 877.00,327.65 878.00,327.00 C879.95,325.74 879.00,325.64 876.53,326.25 C879.59,325.39 882.89,324.57 886.32,323.80 C884.84,324.31 884.61,324.72 885.50,325.07 C888.36,326.20 891.00,326.16 891.00,325.00 C891.00,324.45 891.67,324.00 892.50,324.00 C893.33,324.00 894.00,324.38 894.00,324.85 C894.00,325.31 898.39,325.09 903.75,324.37 C919.65,322.21 921.37,321.85 919.99,320.99 C919.05,320.41 919.21,320.07 920.60,319.72 C924.12,318.82 917.05,318.98 909.62,319.75 C918.32,318.66 925.88,318.24 930.00,318.84 C935.65,319.67 936.17,321.77 932.63,329.49 C929.22,336.94 915.72,357.92 907.40,368.68 C900.40,377.75 885.17,393.33 873.14,404.11 L 875.50 401.50 L 872.44 404.00 C870.02,405.97 870.13,405.76 872.94,402.98 C877.53,398.45 880.85,394.45 879.25,395.39 C878.56,395.79 878.00,395.62 878.00,395.00 C878.00,394.37 877.46,394.21 876.75,394.64 C876.06,395.06 877.46,393.18 879.87,390.45 C891.98,376.70 895.11,372.94 899.78,366.46 C902.57,362.58 906.69,356.02 908.93,351.88 C912.87,344.56 917.39,333.06 916.63,332.29 C916.42,332.08 915.25,333.85 914.02,336.21 C907.21,349.34 894.15,366.85 881.11,380.34 C869.45,392.39 844.80,412.13 843.29,410.62 C842.95,410.28 843.25,410.00 843.96,410.00 C844.90,410.00 844.96,409.65 844.17,408.70 C843.34,407.70 844.95,405.91 851.15,400.95 C861.04,393.03 876.19,377.40 882.26,368.86 C890.14,357.75 901.04,336.71 899.64,335.31 C899.44,335.10 897.45,337.99 895.23,341.72 C880.80,365.97 852.96,394.78 833.35,405.74 C830.39,407.40 828.52,407.92 827.86,407.26 C827.21,406.61 829.88,403.88 835.69,399.24 C846.35,390.72 857.00,379.79 863.26,370.94 C868.51,363.52 877.42,345.75 876.81,343.92 C876.58,343.25 874.44,346.04 872.04,350.10 C857.63,374.57 831.07,398.90 803.87,412.57 C799.01,415.01 794.90,417.00 794.73,417.00 C794.57,417.00 794.43,416.06 794.43,414.91 C794.43,413.48 795.69,412.18 798.46,410.77 C808.83,405.50 825.87,392.23 835.17,382.19 C843.05,373.68 850.34,362.17 854.00,352.48 C855.44,348.67 854.52,349.71 847.91,359.45 C840.39,370.50 827.38,383.86 815.56,392.68 C805.71,400.03 785.64,410.97 784.36,409.70 C784.00,409.34 784.66,406.55 785.83,403.50 C786.97,400.52 787.48,399.15 787.39,398.69 C788.74,397.95 790.24,397.23 791.67,396.66 C800.73,393.06 814.36,383.13 817.50,377.85 C818.05,376.92 820.56,373.09 823.08,369.33 C824.82,366.75 827.33,362.97 829.56,359.58 C829.38,359.88 829.19,360.19 829.01,360.50 C826.05,365.45 822.48,371.05 821.07,372.95 ZM 801.66 368.07 C803.40,367.01 805.12,365.20 805.48,364.06 C805.84,362.91 807.54,361.26 809.24,360.37 L 812.35 358.77 L 809.92 356.91 C799.44,348.85 790.25,351.03 782.56,363.40 L 780.76 366.29 L 784.96 365.62 C788.54,365.05 789.59,365.32 792.15,367.48 C795.75,370.50 797.49,370.61 801.66,368.07 ZM 708.00 331.41 C708.00,332.46 709.01,332.55 712.71,331.86 C715.30,331.38 717.86,330.54 718.41,329.99 C718.95,329.45 720.02,329.00 720.77,329.00 C721.53,329.00 722.84,328.30 723.69,327.45 C725.09,326.05 724.96,325.96 722.37,326.54 C710.88,329.12 708.00,330.09 708.00,331.41 ZM 860.00 414.62 C860.00,414.68 860.00,414.74 860.01,414.78 C857.45,416.63 854.85,418.44 852.21,420.19 C855.33,418.00 857.82,415.98 859.44,414.25 C863.07,410.41 866.05,408.49 864.50,411.00 C864.30,411.33 864.17,411.57 864.12,411.74 C863.73,412.04 863.36,412.32 863.00,412.59 C862.72,412.80 862.43,413.01 862.15,413.22 C863.37,411.66 863.33,411.64 861.75,412.87 C860.79,413.63 860.00,414.41 860.00,414.62 ZM 668.50 459.07 C652.25,456.19 637.16,451.73 623.08,445.59 C636.89,451.30 654.49,456.59 668.50,459.07 ZM 706.38 441.29 C706.42,441.50 706.48,441.73 706.56,442.00 C706.94,443.38 706.88,444.15 706.44,443.73 C706.02,443.33 704.46,446.41 702.85,450.72 C702.92,450.55 702.98,450.37 703.04,450.19 C704.23,446.78 705.30,443.88 706.38,441.29 ZM 866.62 409.74 C868.48,407.56 868.47,407.55 866.50,409.02 C864.64,410.40 864.60,410.38 865.91,408.70 C866.69,407.72 867.87,407.12 868.55,407.38 C868.81,407.48 869.26,407.35 869.81,407.05 C868.70,408.01 867.63,408.91 866.62,409.74 ZM 829.00 364.00 C828.41,365.10 827.70,366.00 827.43,366.00 C827.15,366.00 827.41,365.10 828.00,364.00 C828.59,362.90 829.30,362.00 829.57,362.00 C829.85,362.00 829.59,362.90 829.00,364.00 ZM 832.62 354.93 C836.82,348.61 841.74,343.43 847.83,339.08 C842.23,343.22 837.12,348.55 832.62,354.93 ZM 805.49 444.49 C815.86,440.33 826.72,435.14 836.10,430.01 C826.38,435.44 816.19,440.25 805.49,444.49 ZM 769.58 437.89 C767.69,442.46 765.98,446.15 765.04,447.50 C764.91,447.69 764.64,448.11 764.29,448.70 C766.19,445.19 767.94,441.64 769.58,437.89 ZM 762.91 457.70 C769.01,456.49 784.96,451.86 795.72,448.14 C789.04,450.50 782.16,452.65 775.08,454.59 L 774.80 454.67 C768.97,456.27 765.19,457.31 762.91,457.70 ZM 533.11 361.92 C535.80,366.90 538.63,371.92 540.67,375.26 C538.03,371.04 535.53,366.63 533.11,361.92 ZM 542.88 378.70 C547.09,385.00 551.85,391.16 557.05,397.06 C551.77,391.13 547.13,385.13 542.88,378.70 ZM 858.84 332.70 C862.42,331.02 866.32,329.48 870.59,328.06 C866.90,329.33 862.57,331.01 858.84,332.70 ZM 640.53 333.96 L 634.99 334.34 C636.74,334.14 638.68,333.99 640.00,333.96 ZM 525.81 279.02 L 525.37 278.27 C525.88,277.99 526.04,278.26 525.81,279.02 ZM 743.91 461.54 C739.57,467.37 734.80,472.75 729.74,477.59 C734.80,472.75 739.56,467.36 743.89,461.54 C744.75,460.38 745.53,459.32 746.25,458.35 C745.50,459.38 744.72,460.44 743.91,461.54 ZM 526.98 280.78 C526.87,280.66 526.75,280.52 526.64,280.36 C526.81,280.41 526.93,280.56 526.98,280.78 Z"/>
<path fill="rgb(100,136,211)" d="M 668.50 459.07 C652.25,456.19 637.16,451.73 623.08,445.59 C602.86,436.77 584.70,424.50 568.12,408.53 C564.12,404.67 560.45,400.88 557.05,397.06 L 557.05 397.06 C551.85,391.15 547.09,385.00 542.88,378.70 C542.13,377.57 541.39,376.42 540.67,375.26 C538.63,371.92 535.80,366.90 533.11,361.92 C532.28,360.32 531.46,358.68 530.65,357.00 C528.37,352.30 526.77,348.85 525.28,345.07 C526.15,344.63 528.86,345.48 531.03,347.02 C532.59,348.13 534.24,348.94 534.68,348.82 C535.13,348.70 536.55,348.96 537.82,349.39 C539.20,349.86 541.32,349.70 543.03,348.99 C546.32,347.63 548.80,348.96 557.06,356.55 C564.78,363.63 577.28,372.30 585.80,376.50 L 593.92 380.50 L 594.02 389.50 C594.05,392.38 594.26,396.03 594.56,399.33 C594.71,401.48 594.93,403.41 595.20,405.00 L 596.50 412.50 L 604.00 416.24 C619.78,424.09 642.15,429.56 663.00,430.64 C673.42,431.18 692.90,429.93 698.86,428.34 C700.94,427.78 701.11,427.94 700.24,429.60 C699.69,430.65 697.85,435.63 696.14,440.68 C694.43,445.73 691.93,452.37 690.57,455.43 L 688.11 461.00 L 683.31 460.92 C680.66,460.87 674.00,460.04 668.50,459.07 ZM 762.01 452.75 C762.80,451.40 763.56,450.05 764.29,448.70 C764.64,448.11 764.91,447.69 765.04,447.50 C765.98,446.15 767.69,442.46 769.58,437.89 C772.78,430.62 775.60,422.60 778.53,412.73 C779.96,407.90 782.12,402.86 783.32,401.53 C784.01,400.76 785.56,399.70 787.39,398.69 C787.48,399.15 786.97,400.52 785.83,403.50 C784.66,406.55 784.00,409.34 784.36,409.70 C785.64,410.97 805.71,400.03 815.56,392.68 C827.38,383.86 840.39,370.50 847.91,359.45 C854.52,349.71 855.44,348.67 854.00,352.48 C850.34,362.17 843.05,373.68 835.17,382.19 C825.87,392.23 808.83,405.50 798.46,410.77 C795.69,412.18 794.43,413.48 794.43,414.91 C794.43,416.06 794.57,417.00 794.73,417.00 C794.90,417.00 799.01,415.01 803.87,412.57 C831.07,398.90 857.63,374.57 872.04,350.10 C874.44,346.04 876.58,343.25 876.81,343.92 C877.42,345.75 868.51,363.52 863.26,370.94 C857.00,379.79 846.35,390.72 835.69,399.24 C829.88,403.88 827.21,406.61 827.86,407.26 C828.52,407.92 830.39,407.40 833.35,405.74 C852.96,394.78 880.80,365.97 895.23,341.72 C897.45,337.99 899.44,335.10 899.64,335.31 C901.04,336.71 890.14,357.75 882.26,368.86 C876.19,377.40 861.04,393.03 851.15,400.95 C844.95,405.91 843.34,407.70 844.17,408.70 C844.96,409.65 844.90,410.00 843.96,410.00 C843.25,410.00 842.95,410.28 843.29,410.62 C844.80,412.13 869.45,392.39 881.11,380.34 C894.15,366.85 907.21,349.34 914.02,336.21 C915.25,333.85 916.42,332.08 916.63,332.29 C917.39,333.06 912.87,344.56 908.93,351.88 C906.69,356.02 902.57,362.58 899.78,366.46 C895.11,372.94 891.98,376.70 879.87,390.45 C877.46,393.18 876.06,395.06 876.75,394.64 C877.46,394.21 878.00,394.37 878.00,395.00 C878.00,395.62 878.56,395.79 879.25,395.39 C880.85,394.45 877.53,398.45 872.94,402.98 C870.13,405.76 870.02,405.97 872.44,404.00 L 875.50 401.50 L 873.14 404.11 C872.00,405.14 870.88,406.12 869.81,407.05 C869.26,407.35 868.81,407.48 868.55,407.38 C867.87,407.12 866.69,407.72 865.91,408.70 C864.60,410.38 864.64,410.40 866.50,409.02 C868.47,407.55 868.48,407.56 866.62,409.74 C865.74,410.46 864.91,411.13 864.12,411.74 C864.17,411.57 864.30,411.33 864.50,411.00 C866.05,408.49 863.07,410.41 859.44,414.25 C857.82,415.98 855.33,418.00 852.21,420.19 C846.99,423.66 841.62,426.93 836.10,430.01 L 836.10 430.01 C835.89,430.12 835.69,430.24 835.49,430.35 C826.25,435.37 815.64,440.41 805.50,444.49 L 805.49 444.49 C802.28,445.76 799.03,446.98 795.72,448.14 C784.96,451.86 769.01,456.49 762.91,457.70 C761.23,457.99 760.36,457.93 760.07,457.49 C759.64,456.83 760.52,455.32 761.95,452.86 ZM 670.00 503.99 C670.00,503.30 672.97,499.59 676.61,495.74 C687.89,483.78 696.26,469.43 702.86,450.72 C704.46,446.41 706.02,443.33 706.44,443.73 C706.88,444.15 706.94,443.38 706.56,442.00 C706.48,441.73 706.42,441.50 706.38,441.29 C706.47,441.07 706.56,440.86 706.65,440.64 C706.70,440.71 706.76,440.78 706.82,440.87 C708.19,442.85 709.82,441.59 717.68,432.50 C725.90,422.99 737.75,411.58 740.38,410.64 C741.58,410.21 742.69,410.56 743.45,411.60 C744.15,412.55 746.29,413.32 748.57,413.44 C750.73,413.55 753.17,413.90 754.00,414.22 C754.83,414.55 756.29,415.06 757.25,415.37 C759.72,416.17 759.47,418.22 755.45,430.05 L 755.44 430.08 C751.92,440.44 751.20,442.56 751.83,444.14 C752.00,444.54 752.25,444.91 752.58,445.38 C753.26,446.37 753.59,447.03 752.87,448.62 C750.93,451.71 748.76,454.88 746.25,458.35 C745.53,459.32 744.75,460.38 743.89,461.54 C739.56,467.36 734.80,472.75 729.74,477.59 C717.45,489.34 703.38,497.92 689.30,502.02 C680.69,504.53 670.00,505.62 670.00,503.99 ZM 525.81 279.02 C526.04,278.26 525.88,277.99 525.37,278.27 L 524.92 277.50 L 525.15 278.39 C524.59,278.58 524.00,277.80 523.75,276.49 C523.20,273.57 524.09,273.30 526.19,275.75 C528.19,278.07 529.01,280.57 528.11,281.41 C527.82,281.46 527.42,281.25 526.98,280.78 C526.93,280.56 526.81,280.41 526.64,280.36 C526.51,280.19 526.39,280.00 526.26,279.78 ZM 860.00 414.62 C860.00,414.41 860.79,413.63 861.75,412.87 C863.33,411.64 863.37,411.66 862.15,413.22 C861.44,413.74 860.73,414.26 860.01,414.78 C860.00,414.74 860.00,414.68 860.00,414.62 ZM 525.58 280.00 C525.63,280.17 525.69,280.37 525.78,280.60 C525.47,280.69 525.38,280.40 525.54,279.82 Z"/>
</g>
</svg>
